<svg width="24" height="22" viewBox="0 0 24 22" fill="#1F2232" xmlns="http://www.w3.org/2000/svg">
<g clip-path="url(#clip0)">
<path d="M1 12.1478H23C23.6692 12.1478 24.25 11.6452 24.25 10.9811C24.25 10.317 23.6692 9.81445 23 9.81445H1C0.330848 9.81445 -0.25 10.317 -0.25 10.9811C-0.25 11.6452 0.330848 12.1478 1 12.1478Z" fill="#1F2232" stroke="#1F2232" stroke-width="0.5"/>
<path d="M1 5.11971H23C23.6692 5.11971 24.25 4.61715 24.25 3.95304C24.25 3.28894 23.6692 2.78638 23 2.78638H1C0.330848 2.78638 -0.25 3.28894 -0.25 3.95304C-0.25 4.61715 0.330848 5.11971 1 5.11971Z" fill="#1F2232" stroke="#1F2232" stroke-width="0.5"/>
<path d="M1 19.1751H23C23.6692 19.1751 24.25 18.6726 24.25 18.0085C24.25 17.3444 23.6692 16.8418 23 16.8418H1C0.330848 16.8418 -0.25 17.3444 -0.25 18.0085C-0.25 18.6726 0.330848 19.1751 1 19.1751Z" fill="#1F2232" stroke="#1F2232" stroke-width="0.5"/>
</g>
<defs>
<clipPath id="clip0">
<rect width="25" height="25" fill="#1F2232"/>
</clipPath>
</defs>
</svg>
