<svg width="275" height="411" viewBox="0 0 275 411" fill="none" xmlns="http://www.w3.org/2000/svg">
<path d="M178.656 235.536C179.348 234.238 179.747 232.805 179.825 231.337C179.903 229.869 179.658 228.402 179.108 227.039C178.558 225.676 177.715 224.45 176.64 223.448C175.565 222.445 174.284 221.691 172.886 221.238L172.149 185.51L156.867 196.051L159.909 228.362C159.304 230.762 159.599 233.301 160.74 235.497C161.881 237.693 163.787 239.395 166.098 240.279C168.409 241.163 170.964 241.169 173.278 240.295C175.593 239.42 177.506 237.727 178.656 235.536H178.656Z" fill="#FFB8B8"/>
<path d="M161.758 97.9654L176.717 210.479L158.709 211.158L143.659 93.0469L147.271 90.9151C148.645 90.104 150.199 89.646 151.793 89.582C153.387 89.518 154.972 89.8499 156.407 90.5481C157.842 91.2464 159.082 92.2892 160.015 93.5835C160.949 94.8777 161.548 96.3832 161.758 97.9654V97.9654Z" fill="#EF476F"/>
<path d="M114.016 399.485L101.761 399.484L95.9306 352.196L114.019 352.197L114.016 399.485Z" fill="#FFB8B8"/>
<path d="M78.125 410.867L116.641 410.869L116.641 395.982L93.0068 395.981C89.0601 395.981 85.2749 397.549 82.4841 400.341C79.6932 403.133 78.1252 406.919 78.125 410.867V410.867Z" fill="#1F2232"/>
<path d="M215.979 384.833L204.858 389.983L179.708 349.522L196.121 341.921L215.979 384.833Z" fill="#FFB8B8"/>
<path opacity="0.2" d="M147.131 111.286C151.526 110.834 155.714 110.661 159.349 110.638C168.175 122.732 171.419 160.842 164.588 166.575C164.588 166.575 131.996 131 147.131 111.286Z" fill="black"/>
<path d="M188.19 410.247L223.143 394.06L216.891 380.551L195.443 390.484C191.862 392.142 189.085 395.157 187.725 398.863C186.365 402.569 186.532 406.664 188.19 410.247V410.247V410.247Z" fill="#1F2232"/>
<path d="M101.167 389.493C101.347 389.493 101.526 389.483 101.704 389.462L111.4 388.321C112.42 388.196 113.367 387.728 114.085 386.993C114.804 386.259 115.251 385.301 115.353 384.279L126.991 262.137C127.022 261.818 127.153 261.517 127.367 261.279C127.581 261.04 127.866 260.876 128.179 260.811C128.493 260.746 128.819 260.783 129.11 260.917C129.401 261.051 129.642 261.275 129.797 261.555L194.552 378.922C195.039 379.81 195.813 380.507 196.747 380.9C197.68 381.292 198.719 381.357 199.695 381.083L210.587 378.056C211.175 377.893 211.723 377.612 212.199 377.23C212.675 376.848 213.068 376.373 213.355 375.835C213.642 375.296 213.816 374.704 213.866 374.096C213.917 373.488 213.843 372.876 213.65 372.297C204.164 343.903 156.639 201.596 152.575 188.499C147.72 172.848 111.477 166.681 108.354 166.178L106.56 164.384L106.214 164.848C90.2171 186.392 82.4762 214.924 84.4176 245.19L84.4185 245.201L96.6977 385.385C96.796 386.505 97.309 387.547 98.1361 388.307C98.9631 389.067 100.044 389.49 101.167 389.493V389.493Z" fill="#1F2232"/>
<path d="M152.247 72.3427C138.688 72.3427 127.696 61.3464 127.696 47.7817C127.696 34.217 138.688 23.2207 152.247 23.2207C165.807 23.2207 176.799 34.217 176.799 47.7817C176.799 61.3464 165.807 72.3427 152.247 72.3427Z" fill="#FFB8B8"/>
<path d="M150.995 184.736L165.563 108.774C166.782 102.357 165.517 95.7163 162.025 90.1972C158.533 84.6782 153.075 80.6932 146.756 79.0495C142.851 78.0336 138.743 78.1021 134.873 79.2478C131.004 80.3934 127.52 82.5728 124.797 85.5515C117.361 93.6721 107.915 105.489 105.144 115.675C102.798 124.321 96.1967 156.721 96.1304 157.047L96.0779 157.304L96.2604 157.494C96.2953 157.53 99.8323 161.187 105.338 165.751C108.568 168.43 111.87 170.916 115.152 173.141C124.367 179.365 149.438 184.424 150.501 184.637L150.995 184.736Z" fill="#EF476F"/>
<path d="M4.69761 13.5687C4.9967 15.008 5.60763 16.3642 6.48734 17.5418C7.36705 18.7194 8.49414 19.6896 9.78924 20.3843C11.0843 21.079 12.5159 21.4811 13.9832 21.5624C15.4504 21.6437 16.9177 21.4022 18.2816 20.8548L41.7144 47.8262L46.7068 29.9407L23.6892 7.07027C22.6182 4.83912 20.7663 3.0785 18.4844 2.12203C16.2024 1.16556 13.6491 1.07971 11.3081 1.88072C8.96714 2.68174 7.00126 4.31399 5.7829 6.46816C4.56454 8.62232 4.17838 11.1487 4.69761 13.5687L4.69761 13.5687Z" fill="#FFB8B8"/>
<path d="M148.863 94.8133C148.826 93.7965 148.694 92.7852 148.47 91.7929C147.978 89.7844 146.996 87.9294 145.611 86.3941C144.227 84.8589 142.483 83.6913 140.536 82.9962L79.7933 55.0517L46.3324 24.564L34.0776 40.2548L78.8101 88.5708L132.366 107.323C134.299 107.919 136.346 108.045 138.337 107.693C140.329 107.341 142.208 106.52 143.819 105.298C145.431 104.076 146.729 102.488 147.606 100.664C148.483 98.8414 148.913 96.8358 148.863 94.8133V94.8133Z" fill="#EF476F"/>
<path d="M153.7 72.1165C157.194 66.8842 159.952 59.6289 156.105 54.6506C152.307 49.7364 144.817 50.4604 139.001 48.2859C130.9 45.2573 126.202 35.7366 127.667 27.2103C129.132 18.6839 135.974 11.6159 144.125 8.72387C152.275 5.83187 161.466 6.77239 169.448 10.1027C179.273 14.2024 187.702 22.133 191.236 32.179C194.771 42.2249 192.881 54.2871 185.549 62.0086C177.688 70.287 165.351 72.4932 153.939 72.3593" fill="#1F2232"/>
<path d="M192.255 43.1567C193.255 48.7477 199.386 51.9232 205.02 52.6211C210.655 53.319 216.484 52.4241 221.969 53.8901C231.639 56.4745 238.018 65.7782 241.528 75.1556C245.039 84.5329 246.596 94.6538 251.157 103.567C255.718 112.48 264.562 120.338 274.537 119.505C272.583 124.426 269.159 128.625 264.731 131.528C260.304 134.431 255.089 135.896 249.798 135.725C244.507 135.553 239.398 133.752 235.168 130.569C230.938 127.385 227.793 122.973 226.162 117.936C222.497 106.619 226.704 93.1227 220.295 83.102C216.749 77.557 210.626 74.2953 204.722 71.3891C198.818 68.4829 192.621 65.4998 188.663 60.2415C184.704 54.9831 183.913 46.6786 188.791 42.2607" fill="#1F2232"/>
</svg>
