<svg width="18" height="13" viewBox="0 0 18 13" fill="none" xmlns="http://www.w3.org/2000/svg">
<path d="M9.00077 12.3646C8.95034 12.3915 8.90467 12.4156 8.86409 12.4369C8.8233 12.4152 8.77736 12.3907 8.72661 12.3633C8.49352 12.2375 8.15934 12.0524 7.75781 11.8168C6.95374 11.345 5.88458 10.6733 4.81812 9.87172C3.74874 9.06792 2.69877 8.14579 1.92059 7.17597C1.13641 6.19866 0.672852 5.22861 0.672852 4.31932C0.672852 2.25158 2.52197 0.500131 4.90004 0.500143L4.9036 0.500118C6.35084 0.489805 7.68608 1.1555 8.45494 2.23758L8.86015 2.80788L9.26851 2.23983C10.0436 1.16158 11.3768 0.497109 12.8233 0.500128C15.1965 0.510952 17.0403 2.25587 17.0522 4.32056C17.0517 5.24689 16.5868 6.22489 15.804 7.20332C15.0262 8.17546 13.9768 9.09525 12.9079 9.89484C11.8418 10.6923 10.773 11.3578 9.9692 11.8246C9.56781 12.0577 9.23375 12.2405 9.00077 12.3646Z" fill="white" stroke="#EF476F"/>
</svg>
