<svg id="Layer_1" data-name="Layer 1" xmlns="http://www.w3.org/2000/svg" viewBox="0 0 367 367"><defs><style>.cls-1{fill:#fff;}.cls-2{fill:#ef476f;}</style></defs><circle class="cls-1" cx="183.5" cy="183.5" r="183.5"/><path class="cls-2" d="M66.36,311.36Q44,304,38,286.31t3.33-45.95Q50.62,212.12,117.83,88l-6.77-47.17q51.93-13.6,87.2-2Q220.63,46.2,219,69.18,262.18,82.11,332.23,85a110.43,110.43,0,0,1-5.06,25.64q-10.1,30.71-35.48,39.59t-57.24-1.58a110.66,110.66,0,0,1-39.47-23q-8.64,16.06-28.92,52.24a137.9,137.9,0,0,0,23,10.5,357.49,357.49,0,0,0,37,2.49q-.23,7.07-5,21.66T201.65,232a45.44,45.44,0,0,1-29.21.07,142.42,142.42,0,0,1-28.65-13.19,276.72,276.72,0,0,0-19,43.75l61.42,20.17a307.49,307.49,0,0,0,62.9,4.24q0,7.58-3.82,19.32a68,68,0,0,1-26.16,35.52q-18.81,13.14-41.94,5.55-12.13-4-33.89-16.39t-32.76-17.27A80.9,80.9,0,0,1,66.36,311.36Z"/></svg>